# xmcd
#
# Track frame offsets:
#	150
#	20202
#	41972
#	58120
#	73160
#	87762
#	102637
#	121807
#	135477
#	148352
#	167752
#	185170
#	205845
#	223987
#	240612
#
# Disc length: 3506 seconds
#
# Revision: 2
# Processed by: cddbd v1.5.2PL0 Copyright (c) Steve Scherf et al.
# Submitted via: EasyCDDAExtractor 15.3.0.1
#
DISCID=f50db00f
DTITLE=Mijares - 30 Exitos Insuperables - CD 2
DYEAR=2003
DGENRE=Latin
TTITLE0=Que Nada Nos Separe
TTITLE1=Amor
TTITLE2=Me Acordare De Ti
TTITLE3=Piel Canela
TTITLE4=El Rey De La Noche
TTITLE5=El Amor No Tiene Fronteras
TTITLE6=Mujer
TTITLE7=Quizas, Quizas, Quizas...
TTITLE8=Volveras
TTITLE9=Bonita
TTITLE10=Uno Entre Mil
TTITLE11=Ansiedad
TTITLE12=El Breve Espacio
TTITLE13=Cuatro Veces Amor
TTITLE14=Encadenado
EXTD=
EXTT0=
EXTT1=
EXTT2=
EXTT3=
EXTT4=
EXTT5=
EXTT6=
EXTT7=
EXTT8=
EXTT9=
EXTT10=
EXTT11=
EXTT12=
EXTT13=
EXTT14=
PLAYORDER=
